:SAMPLES-PER-SECOND 30
:FULLY-SPECIFIED
:DEGREES
685
root  52.0305 36.8054 -27.4257 13.8213 -36.1501 -2.80048
RightUpLeg  -37.7366 -6.47642 8.44404
RightLeg  45.8476 -13.791 -15.0407
RightFoot  -17.6613 -0.303115 -3.33837
RightToes  5.82063e-011 0 -3.6325e-017
Spine  64.7043 -5.67195 11.2693
Spine1  5.24267 0.722878 -0.634157
HEad  -56.693 -7.99672 12.9294
LeftShoulder1  9.01236 -23.7847 -26.75
LeftArm  -25.4168 -70.9482 9.86714
LeftForeArm  64.5689 -29.2081 -3.09167
LeftHand  -0.244104 0.0205437 5.32207
RightShoulder  6.19555 15.8928 25.7765
RightArm  -36.2094 59.9229 -9.77868
RightForeArm  38.6307 30.5042 4.52544
RightHand  -18.8897 34.1951 -51.5467
LeftUpLeg  -48.0751 9.51178 1.683
LeftLeg  74.4133 2.40211 10.9372
LeftFoot  -1.86619 0.0462884 -0.429347
LeftToes  1.45487e-011 -6.19069e-011 1.65092e-011
686
root  52.0365 36.9778 -26.1604 13.2901 -38.5987 -2.66357
RightUpLeg  -35.2892 -4.9013 6.18108
RightLeg  45.4324 -13.1441 -14.1955
RightFoot  -18.262 -0.227248 -1.71309
RightToes  5.82063e-011 0 -3.6325e-017
Spine  64.56 -4.2722 10.2676
Spine1  5.97506 1.26763 1.22652
HEad  -58.4957 -8.42945 11.9517
LeftShoulder1  9.54355 -24.1952 -28.2191
LeftArm  -26.0996 -71.3725 11.3106
LeftForeArm  64.6316 -29.1343 -3.07499
LeftHand  -0.244104 0.0205437 5.32207
RightShoulder  5.54319 15.3449 23.1366
RightArm  -36.5635 60.9677 -8.80799
RightForeArm  37.6332 27.1668 3.83628
RightHand  -20.8864 35.9507 -54.1343
LeftUpLeg  -48.6436 8.80495 4.82142
LeftLeg  65.9873 3.89977 10.2424
LeftFoot  -4.14072 0.0612264 -0.635698
LeftToes  1.45487e-011 -6.19069e-011 1.65092e-011
687
root  51.9976 37.1942 -24.8798 13.0623 -40.8365 -2.14709
RightUpLeg  -33.1757 -3.34943 3.77183
RightLeg  44.2979 -12.697 -13.2298
RightFoot  -18.6291 -0.121133 0.0843548
RightToes  5.82063e-011 0 -3.6325e-017
Spine  65.6716 -5.35513 9.71053
Spine1  3.81186 1.25471 -2.86661
HEad  -58.5757 -8.03134 13.8139
LeftShoulder1  8.95024 -24.2455 -25.948
LeftArm  -22.5665 -70.3215 7.66378
LeftForeArm  65.3463 -30.2108 -3.27537
LeftHand  -0.244104 0.0205437 5.32207
RightShoulder  6.64773 16.0168 28.0216
RightArm  -35.2889 61.2733 -10.7056
RightForeArm  36.4178 25.8691 3.62537
RightHand  -22.3988 37.1466 -56.0707
LeftUpLeg  -47.9023 9.04191 7.30417
LeftLeg  53.3042 5.74893 8.68832
LeftFoot  -5.32995 0.13375 -1.93148
LeftToes  1.45487e-011 -6.19069e-011 1.65092e-011
688
root  51.9641 37.265 -23.4921 13.0292 -43.2083 -1.51562
RightUpLeg  -31.7503 -2.06879 1.29017
RightLeg  43.9084 -12.4239 -12.7968
RightFoot  -19.3214 -0.0716336 0.846602
RightToes  5.82063e-011 0 -3.6325e-017
Spine  65.1642 -4.92399 8.7499
Spine1  4.19465 1.28964 -3.33291
HEad  -59.0126 -7.8529 13.7708
LeftShoulder1  8.95167 -24.0452 -26.2009
LeftArm  -22.4958 -70.4243 7.97169
LeftForeArm  65.8312 -31.2141 -3.47095
LeftHand  -0.244104 0.0205437 5.32207
RightShoulder  6.74149 16.0655 28.4075
RightArm  -35.7398 61.3067 -11.058
RightForeArm  35.9651 25.2612 3.51914
RightHand  -23.3901 37.8659 -57.3354
LeftUpLeg  -45.3809 9.3828 9.15486
LeftLeg  38.498 7.03357 6.37819
LeftFoot  -2.71326 0.271629 -3.27249
LeftToes  1.45487e-011 -6.19069e-011 1.65092e-011
689
root  51.9929 37.1136 -21.9541 12.4303 -45.8168 -0.844116
RightUpLeg  -30.6059 -0.703997 -1.7613
RightLeg  44.9991 -11.2147 -12.0579
RightFoot  -20.3232 0.0772793 2.68149
RightToes  5.82063e-011 0 -3.6325e-017
Spine  64.5387 -4.75851 8.05921
Spine1  4.50644 1.08962 -3.74967
HEad  -57.8744 -7.72307 13.1483
LeftShoulder1  8.93741 -23.674 -26.6141
LeftArm  -19.9628 -70.742 7.28848
LeftForeArm  64.7353 -31.1156 -3.48997
LeftHand  -0.244104 0.0205437 5.32207
RightShoulder  6.89459 16.1739 29.0095
RightArm  -34.4069 61.4917 -11.1999
RightForeArm  34.6006 24.1921 3.38244
RightHand  -24.56 38.6538 -58.8319
LeftUpLeg  -42.1123 10.1221 9.86404
LeftLeg  28.1631 5.71488 3.64498
LeftFoot  2.03212 0.685723 -5.92088
LeftToes  1.45487e-011 -6.19069e-011 1.65092e-011
